<svg width="198" height="198" viewBox="0 0 198 198" fill="none" xmlns="http://www.w3.org/2000/svg">
<g filter="url(#filter0_d)">
<circle cx="99" cy="95" r="75" stroke="#0CA4FA" stroke-width="8"/>
</g>
<g filter="url(#filter1_d)">
<mask id="path-2-inside-1" fill="white">
<path d="M178 95C178 79.3753 173.367 64.1014 164.686 51.11C156.005 38.1185 143.667 27.9928 129.232 22.0135C114.797 16.0342 98.9124 14.4697 83.5879 17.518C68.2634 20.5662 54.1869 28.0902 43.1386 39.1386C32.0902 50.1869 24.5662 64.2634 21.518 79.5879C18.4697 94.9124 20.0342 110.797 26.0135 125.232C31.9928 139.667 42.1185 152.005 55.11 160.686C68.1014 169.367 83.3753 174 99 174L99 95H178Z"/>
</mask>
<path d="M178 95C178 79.3753 173.367 64.1014 164.686 51.11C156.005 38.1185 143.667 27.9928 129.232 22.0135C114.797 16.0342 98.9124 14.4697 83.5879 17.518C68.2634 20.5662 54.1869 28.0902 43.1386 39.1386C32.0902 50.1869 24.5662 64.2634 21.518 79.5879C18.4697 94.9124 20.0342 110.797 26.0135 125.232C31.9928 139.667 42.1185 152.005 55.11 160.686C68.1014 169.367 83.3753 174 99 174L99 95H178Z" stroke="#626262" stroke-width="16" mask="url(#path-2-inside-1)"/>
</g>
<defs>
<filter id="filter0_d" x="0" y="0" width="198" height="198" filterUnits="userSpaceOnUse" color-interpolation-filters="sRGB">
<feFlood flood-opacity="0" result="BackgroundImageFix"/>
<feColorMatrix in="SourceAlpha" type="matrix" values="0 0 0 0 0 0 0 0 0 0 0 0 0 0 0 0 0 0 127 0"/>
<feOffset dy="4"/>
<feGaussianBlur stdDeviation="10"/>
<feColorMatrix type="matrix" values="0 0 0 0 0.395833 0 0 0 0 0.395833 0 0 0 0 0.395833 0 0 0 0.15 0"/>
<feBlend mode="normal" in2="BackgroundImageFix" result="effect1_dropShadow"/>
<feBlend mode="normal" in="SourceGraphic" in2="effect1_dropShadow" result="shape"/>
</filter>
<filter id="filter1_d" x="0" y="0" width="198" height="198" filterUnits="userSpaceOnUse" color-interpolation-filters="sRGB">
<feFlood flood-opacity="0" result="BackgroundImageFix"/>
<feColorMatrix in="SourceAlpha" type="matrix" values="0 0 0 0 0 0 0 0 0 0 0 0 0 0 0 0 0 0 127 0"/>
<feOffset dy="4"/>
<feGaussianBlur stdDeviation="10"/>
<feColorMatrix type="matrix" values="0 0 0 0 0.395833 0 0 0 0 0.395833 0 0 0 0 0.395833 0 0 0 0.15 0"/>
<feBlend mode="normal" in2="BackgroundImageFix" result="effect1_dropShadow"/>
<feBlend mode="normal" in="SourceGraphic" in2="effect1_dropShadow" result="shape"/>
</filter>
</defs>
</svg>
